# xmcd
#
# Track frame offsets:
#	150
#	5855
#	37685
#	66325
#	78157
#	95825
#	106254
#	142337
#	181642
#	205644
#	240830
#	263416
#
# Disc length: 3952 seconds
#
# Revision: 0
# Processed by: cddbd v1.5.2PL0 Copyright (c) Steve Scherf et al.
# Submitted via: dBpowerAMP V4.0
#
DISCID=920f6e0c
DTITLE=VV.AA  - Paisajes Ciegos (Arteleku CD)
DYEAR=2010
DGENRE=Acapella
TTITLE0=Hildegard Westerkamp - Silent Night
TTITLE1=Tzesne - Los lugares secretos # Chaparral
TTITLE2=Iñigo Telletxea - Binaural Batbox
TTITLE3=Stéphane Garin - Olyka
TTITLE4=Stéphane Garin - Mlnyv
TTITLE5=Hildegard Westerkamp - Cool Drool
TTITLE6=Sonidos en Causa - Tabazire
TTITLE7=Soinumapa.net - Test de vergüenza
TTITLE8=Andaluciasoundscpaes.net - Encina milenaria
TTITLE9=Slavek Kwi - Organ fish
TTITLE10=Nader Koochaki - Artaldeak 3, 8 eta 12
TTITLE11=Xabier Erkizia - Zelai magnetikoak
EXTD=
EXTT0=
EXTT1=
EXTT2=
EXTT3=
EXTT4=
EXTT5=
EXTT6=
EXTT7=
EXTT8=
EXTT9=
EXTT10=
EXTT11=
PLAYORDER=
